<?xml version="1.0" encoding="utf-8"?>
<!-- Generator: Adobe Illustrator 20.0.0, SVG Export Plug-In . SVG Version: 6.00 Build 0)  -->
<svg version="1.1" id="Capa_1" xmlns="http://www.w3.org/2000/svg" xmlns:xlink="http://www.w3.org/1999/xlink" x="0px" y="0px"
	 width="90.228px" height="28px" viewBox="0 0 90.228 28" style="enable-background:new 0 0 90.228 28;" xml:space="preserve">
<style type="text/css">
	.st0{fill:#FFFFFF;}
</style>
<title>logo BBVA RGB</title>
<g id="_Grupo_">
	<path id="_Trazado_compuesto_" class="st0" d="M71.857,17.867l3.814-12.75l3.879,12.756L71.857,17.867z M81.717,2.865
		c-0.748-2.3-1.172-2.839-3.367-2.839h-5.348l-8.565,27.977h4.352l1.825-6.042h10.204l1.843,6.042h7.578L81.717,2.865z"/>
	<path id="_Trazado_compuesto_2" class="st0" d="M30.3,24.262V3.684h3.605c1.722,0,3.226,1.434,3.226,3.14
		c0,0.614-0.129,1.159-0.715,2.034l-2.314,3.496c2.423,0.582,4.045,2.443,4.045,5.94c0,4.195-2.519,5.981-5.845,5.981L30.3,24.262z
		 M39.368,11.004l1.342-2.038c2.906-4.289,0.903-8.946-4.815-8.946H23.72v27.992h11.75c10.335,0,13.458-12.027,3.891-16.999"/>
	<path id="_Trazado_compuesto_3" class="st0" d="M8.619,24.262H6.616V3.684h3.597c1.731,0,3.234,1.434,3.234,3.14
		c0,0.614-0.135,1.159-0.713,2.034l-2.329,3.496c2.419,0.582,4.055,2.443,4.055,5.94c0,4.195-2.517,5.981-5.841,5.981
		 M15.665,11.016l1.372-2.038c2.867-4.289,0.899-8.946-4.809-8.946H0.029v27.98H11.8c10.318,0,13.44-12.027,3.865-16.999"/>
	<path id="_Trazado_" class="st0" d="M51.652,3.684c-0.995-3.156-1.495-3.656-3.412-3.656H43.3l9.147,27.992h6.734l8.518-28h-4.432
		l-6.3,21.251L51.652,3.684z"/>
</g>
</svg>
