<svg height="512pt" viewBox="0 -63 512 512" width="512pt" xmlns="http://www.w3.org/2000/svg"><path d="m496.207031 72.542969h-23.460937v257.585937c0 8.722656-7.070313 15.792969-15.789063 15.792969h-386.121093v25.164063c0 8.722656 7.070312 15.792968 15.792968 15.792968h409.578125c8.722657 0 15.792969-7.070312 15.792969-15.792968v-282.753907c0-8.71875-7.070312-15.789062-15.792969-15.789062zm0 0"/><path d="m88.753906 86.890625h82.8125v54.488281h-82.8125zm0 0"/><path d="m441.164062 298.695312v-283.054687c0-8.636719-7.003906-15.640625-15.644531-15.640625h-409.878906c-8.636719 0-15.640625 7.003906-15.640625 15.640625v283.054687c0 8.636719 7.003906 15.640626 15.640625 15.640626h409.878906c8.640625 0 15.644531-7.003907 15.644531-15.640626zm-74.21875-43.707031h-97.445312c-8.71875 0-15.789062-7.070312-15.789062-15.792969 0-8.71875 7.070312-15.789062 15.789062-15.789062h97.445312c8.722657 0 15.792969 7.070312 15.792969 15.789062 0 8.722657-7.070312 15.792969-15.792969 15.792969zm-97.445312-81.617187h44.21875c8.71875 0 15.789062 7.070312 15.789062 15.789062 0 8.722656-7.070312 15.792969-15.789062 15.792969h-44.21875c-8.71875 0-15.789062-7.070313-15.789062-15.792969 0-8.71875 7.070312-15.789062 15.789062-15.789062zm-212.328125-16.203125v-86.070313c0-8.71875 7.070313-15.789062 15.792969-15.789062h114.390625c8.722656 0 15.792969 7.070312 15.792969 15.789062v86.070313c0 8.722656-7.070313 15.792969-15.792969 15.792969h-114.390625c-8.722656 0-15.792969-7.070313-15.792969-15.792969zm0 0"/></svg>